<svg width="32" height="32" viewBox="0 0 32 32" fill="none" xmlns="http://www.w3.org/2000/svg">
<path d="M21.1279 10.1149L21.1562 10.1178L21.1846 10.1188C21.8346 10.1488 23.3997 10.3512 24.6475 11.5895C24.3943 11.8109 24.111 12.0874 23.8301 12.4215C23.0147 13.3911 22.2011 14.8644 22.2168 16.8483V16.8502C22.2401 19.1875 23.2777 20.7753 24.3135 21.7623C24.7487 22.177 25.1878 22.4858 25.5547 22.7096C25.2902 23.3942 24.8457 24.3919 24.1279 25.4313L24.123 25.4381L24.1191 25.444C23.5611 26.2776 23.0484 27.0025 22.4883 27.527C21.9453 28.0353 21.4322 28.2851 20.8691 28.2936H20.8613C20.2073 28.3082 19.7961 28.1315 19.1777 27.8639C18.5292 27.5832 17.7232 27.2399 16.4971 27.2399C15.2782 27.2399 14.4652 27.5569 13.7959 27.8414C13.1441 28.1185 12.7312 28.3077 12.0977 28.3326C11.6102 28.3508 11.0938 28.1148 10.4951 27.5494C9.89403 26.9818 9.33926 26.2071 8.77148 25.3893C7.7155 23.8634 6.76399 21.6597 6.36035 19.3619C5.95517 17.0554 6.12304 14.7823 7.1377 13.0182L7.13867 13.0162C8.13437 11.277 9.90108 10.2073 11.7803 10.1735C12.4182 10.1637 13.0886 10.3817 13.8389 10.6744C14.1852 10.8096 14.5836 10.9748 14.9395 11.0953C15.2941 11.2154 15.7194 11.3336 16.1504 11.3336C16.5994 11.3336 17.0614 11.1874 17.4297 11.0553C17.7753 10.9313 18.2929 10.7196 18.6562 10.5836C19.5137 10.2627 20.3387 10.0334 21.1279 10.1149ZM20.2227 3.89612C20.0726 4.76506 19.6616 5.60902 19.1025 6.27991L19.0938 6.28967C18.5366 6.97597 17.7506 7.50391 16.9561 7.71838C17.1032 6.84207 17.5542 5.96362 18.0957 5.31799C18.65 4.6915 19.4494 4.17717 20.2227 3.89612Z" stroke="#D50032" stroke-width="2"/>
</svg>
