<svg width="32" height="32" viewBox="0 0 32 32" fill="none" xmlns="http://www.w3.org/2000/svg">
<path d="M16.0418 8.99191C16.8679 8.96883 17.5188 8.2805 17.4957 7.45448C17.4725 6.62844 16.7843 5.97753 15.9582 6.00059L16.0418 8.99191ZM7.4994 16.4737L8.99511 16.5136C8.99581 16.487 8.99581 16.4603 8.99511 16.4338L7.4994 16.4737ZM16 25.4511L15.9582 26.9467C15.9861 26.9475 16.014 26.9475 16.0418 26.9467L16 25.4511ZM24.5007 16.4737L25.9963 16.4338C25.9748 15.6232 25.3114 14.9774 24.5007 14.9774V16.4737ZM16 14.9774C15.1737 14.9774 14.5038 15.6473 14.5038 16.4737C14.5038 17.3 15.1737 17.9699 16 17.9699V14.9774ZM15.9582 6.00059C10.308 6.15844 5.85326 10.863 6.0037 16.5136L8.99511 16.4338C8.88862 12.4339 12.042 9.10363 16.0418 8.99191L15.9582 6.00059ZM6.0037 16.4338C5.85326 22.0843 10.308 26.7889 15.9582 26.9467L16.0418 23.9554C12.042 23.8437 8.88862 20.5133 8.99511 16.5136L6.0037 16.4338ZM16.0418 26.9467C21.6921 26.7889 26.1467 22.0843 25.9963 16.4338L23.0048 16.5136C23.1114 20.5133 19.9581 23.8437 15.9582 23.9554L16.0418 26.9467ZM24.5007 14.9774H16V17.9699H24.5007V14.9774Z" fill="#D50032"/>
</svg>
