<svg width="32" height="32" viewBox="0 0 32 32" fill="none" xmlns="http://www.w3.org/2000/svg">
<path d="M28.249 8.93689L21.4893 13.4935L20.4844 12.8617V8.93689H28.249Z" stroke="#D50032" stroke-width="2"/>
<path d="M28.8486 21.3981L28.8545 21.4518C28.8607 21.5107 28.8541 21.5705 28.835 21.6266C28.8158 21.6828 28.7842 21.7341 28.7432 21.777C28.7021 21.8198 28.6519 21.8531 28.5967 21.8746C28.5413 21.8962 28.4812 21.9058 28.4219 21.902L28.3906 21.9H20.4844V17.3561L20.666 17.4811L20.6885 17.4967L20.7119 17.5114C20.9504 17.6566 21.2247 17.733 21.5039 17.733C21.7381 17.733 21.9669 17.676 22.1758 17.5729C22.1871 17.5678 22.1979 17.5641 22.2041 17.5612C22.2289 17.5491 22.2486 17.5378 22.2559 17.5338L22.292 17.5133C22.2932 17.5126 22.2947 17.5121 22.2959 17.5114L21.7764 16.6549C21.8257 16.6195 22.0843 16.4462 22.4805 16.1813C22.6052 16.3172 22.7123 16.4711 22.7676 16.6403C22.7372 16.9064 22.5901 17.2294 22.5371 17.2994C22.5106 17.3301 22.4669 17.3763 22.4502 17.3922C22.4394 17.4022 22.4198 17.4189 22.4121 17.4254C22.397 17.4382 22.3847 17.4481 22.3799 17.4518C22.3742 17.4562 22.3697 17.4597 22.3672 17.4615C22.3707 17.4591 22.376 17.4555 22.3828 17.4508C22.4235 17.4229 22.494 17.3743 22.5938 17.3073C22.7923 17.1737 23.0938 16.9728 23.4648 16.7252C24.2069 16.23 25.2252 15.5522 26.2529 14.8688C27.1746 14.2558 28.1039 13.6379 28.8486 13.1432V21.3981Z" stroke="#D50032" stroke-width="2"/>
<path d="M10.4365 13.599H10.4453C10.6036 13.5977 10.7593 13.6394 10.8955 13.7201C11.0303 13.7999 11.1409 13.9146 11.2158 14.0521V14.0531C11.5297 14.647 11.6764 15.315 11.6396 15.9857L11.6377 16.0219L11.6396 16.059C11.6749 16.6954 11.528 17.3286 11.2158 17.8842C11.1328 18.0252 11.0144 18.1423 10.8721 18.223C10.7296 18.3037 10.568 18.3454 10.4043 18.3441C10.2405 18.3428 10.0797 18.2982 9.93848 18.2152C9.79736 18.1322 9.68039 18.0138 9.59961 17.8715L9.59863 17.8695C9.27888 17.3082 9.12621 16.667 9.15918 16.0219L9.16113 15.9896L9.15918 15.9574C9.12886 15.3083 9.28206 14.6634 9.60059 14.097L9.60449 14.0892C9.68595 13.9401 9.80676 13.8162 9.95312 13.7299C10.0995 13.6435 10.2665 13.5982 10.4365 13.599Z" stroke="#D50032" stroke-width="1.33333"/>
<path d="M17.4521 28.7686L3.15234 25.7695V5.97949L17.4521 3.21094V28.7686ZM10.4648 10.1006C9.77967 10.092 9.10242 10.2479 8.49023 10.5566C7.86524 10.8719 7.3271 11.3361 6.92383 11.9082L6.91895 11.915C6.07038 13.1414 5.64405 14.6103 5.7041 16.0996C5.64726 17.5345 6.07054 18.948 6.90723 20.1162L6.91016 20.1211C7.30593 20.6674 7.82814 21.1098 8.43164 21.4111C9.02395 21.7068 9.67821 21.8563 10.3398 21.8506V21.8516C10.3459 21.8517 10.3524 21.8505 10.3584 21.8506C10.3649 21.8505 10.3714 21.8517 10.3779 21.8516L10.377 21.8506C11.0544 21.8583 11.7238 21.7045 12.3291 21.3994C12.9454 21.0888 13.4767 20.6322 13.876 20.0693L13.8799 20.0645C14.7309 18.8487 15.1563 17.3871 15.0947 15.9053C15.1533 14.4619 14.7411 13.0381 13.917 11.8506L13.9131 11.8447L13.7617 11.6436C13.3946 11.1847 12.9323 10.8092 12.4062 10.543C11.8176 10.2451 11.1662 10.094 10.5068 10.1006H10.4648Z" stroke="#D50032" stroke-width="2"/>
</svg>
